<?xml version="1.0" encoding="iso-8859-1"?>
<!-- Generator: Adobe Illustrator 19.0.0, SVG Export Plug-In . SVG Version: 6.00 Build 0)  -->
<svg version="1.1" id="Capa_1" xmlns="http://www.w3.org/2000/svg" xmlns:xlink="http://www.w3.org/1999/xlink" x="0px" y="0px"
	 viewBox="0 0 512 512" style="enable-background:new 0 0 512 512;" xml:space="preserve">
<g>
	<g>
		<path d="M408.377,90c-4.894,0-9.599,0.846-14,2.383V75.654c0-24.747-20.907-45.654-45.654-45.654
			c-5.686,0-11.119,1.119-16.118,3.135C327.398,15.572,311.063,0,288.722,0c-21.31,0-38.202,13.746-42.983,33.429
			C240.45,31.23,234.7,30,228.722,30c-25.004,0-45.346,20.187-45.346,45v163.852c-36.409-23.537-81.432-30.902-114.299,1.966
			l-10.454,10.454L201.176,398.03c7.868,8.376,12.2,19.313,12.2,30.808V512h210v-64.573c0-5.515,1.512-7.364,7.29-13.564
			c5.044-5.412,11.952-12.825,17-25.013c3.789-9.145,5.71-18.802,5.71-28.702V135C453.377,110.187,433.19,90,408.377,90z
			 M423.377,380.147c0,5.94-1.152,11.734-3.426,17.221c-2.975,7.181-6.801,11.287-11.231,16.041
			c-6.835,7.335-15.343,16.463-15.343,34.018V482h-150v-53.162c0-19.215-7.263-37.494-20.449-51.47L102.343,253.223
			c9.759-4.89,21.082-5.884,33.828-2.946c31.276,7.21,54.381,33.379,56.08,34.723h51.125c33.084,0,60,26.916,60,60h30
			c0-49.626-40.374-90-90-90h-30V75c0-8.131,7.027-15,15.346-15c8.339,0,15.654,7.315,15.654,15.654V226h30V45
			c0-10.362,7.205-15,14.346-15c9.556,0,15.654,8.884,15.654,15v181h30V75.654c0-8.632,6.436-15.654,14.346-15.654
			c8.339,0,15.654,7.315,15.654,15.654V226h30v-90.346c0-7.695,5.236-15.654,14-15.654c8.271,0,15,6.729,15,15V380.147z"/>
	</g>
</g>
<g>
</g>
<g>
</g>
<g>
</g>
<g>
</g>
<g>
</g>
<g>
</g>
<g>
</g>
<g>
</g>
<g>
</g>
<g>
</g>
<g>
</g>
<g>
</g>
<g>
</g>
<g>
</g>
<g>
</g>
</svg>
